<?xml version="1.0" encoding="UTF-8" standalone="no"?>
<!-- Created with Inkscape (http://www.inkscape.org/) -->

<svg
   xmlns:dc="http://purl.org/dc/elements/1.1/"
   xmlns:cc="http://creativecommons.org/ns#"
   xmlns:rdf="http://www.w3.org/1999/02/22-rdf-syntax-ns#"
   xmlns:svg="http://www.w3.org/2000/svg"
   xmlns="http://www.w3.org/2000/svg"
   xmlns:sodipodi="http://sodipodi.sourceforge.net/DTD/sodipodi-0.dtd"
   xmlns:inkscape="http://www.inkscape.org/namespaces/inkscape"
   width="16"
   height="16"
   viewBox="0 0 4.233333 4.2333335"
   version="1.1"
   id="svg16"
   inkscape:version="0.92.1 r15371"
   sodipodi:docname="settings.svg">
  <defs
     id="defs10" />
  <sodipodi:namedview
     id="base"
     pagecolor="#ffffff"
     bordercolor="#666666"
     borderopacity="1.0"
     inkscape:pageopacity="0.0"
     inkscape:pageshadow="2"
     inkscape:zoom="32"
     inkscape:cx="4.768267"
     inkscape:cy="7.5353407"
     inkscape:document-units="mm"
     inkscape:current-layer="layer1"
     showgrid="true"
     units="px"
     inkscape:pagecheckerboard="true"
     inkscape:window-width="1366"
     inkscape:window-height="720"
     inkscape:window-x="0"
     inkscape:window-y="0"
     inkscape:window-maximized="1"
     inkscape:snap-bbox="true"
     inkscape:snap-bbox-midpoints="false"
     inkscape:snap-nodes="true"
     inkscape:bbox-nodes="true"
     inkscape:bbox-paths="true"
     inkscape:snap-bbox-edge-midpoints="true"
     showguides="false">
    <inkscape:grid
       type="xygrid"
       id="grid18"
       empspacing="4"
       spacingx="0.13229167"
       spacingy="0.13229167" />
  </sodipodi:namedview>
  <metadata
     id="metadata13">
    <rdf:RDF>
      <cc:Work
         rdf:about="">
        <dc:format>image/svg+xml</dc:format>
        <dc:type
           rdf:resource="http://purl.org/dc/dcmitype/StillImage" />
        <dc:title></dc:title>
      </cc:Work>
    </rdf:RDF>
  </metadata>
  <g
     inkscape:label="Layer 1"
     inkscape:groupmode="layer"
     id="layer1"
     transform="translate(0,-292.76665)">
    <path
       style="fill:#ffffff;stroke-width:0.02442337"
       d="m 2.3624952,293.11649 c 0.033048,0.0318 0.054668,0.11428 0.078418,0.29929 0.018035,0.1405 0.04025,0.25544 0.049367,0.25544 0.00911,0 0.090428,0.0428 0.18069,0.0952 l 0.1641123,0.0952 0.2453721,-0.0961 c 0.1349548,-0.0527 0.2663055,-0.0928 0.2918908,-0.0892 0.049599,0.007 0.4639719,0.66804 0.4641129,0.74006 4.23e-5,0.0215 -0.099457,0.11295 -0.2211063,0.20351 l -0.2211824,0.16469 v 0.20353 0.20352 l 0.2211824,0.16468 c 0.1216502,0.0906 0.2211481,0.18216 0.2211063,0.20353 -1.421e-4,0.072 -0.4145126,0.73276 -0.4641129,0.74005 -0.025586,0.003 -0.156936,-0.0364 -0.2918908,-0.0892 l -0.2453721,-0.096 -0.1641123,0.0952 c -0.090261,0.0523 -0.1715722,0.0952 -0.18069,0.0952 -0.00911,0 -0.031333,0.11495 -0.049367,0.25543 -0.045619,0.35539 -0.026986,0.34316 -0.522646,0.34316 -0.49566,0 -0.4770273,0.0123 -0.5226461,-0.34316 -0.018035,-0.14048 -0.04025,-0.25543 -0.049367,-0.25543 -0.00911,0 -0.090427,-0.0427 -0.1806899,-0.0952 l -0.1641124,-0.0952 -0.24537196,0.096 c -0.13495465,0.0527 -0.26643295,0.093 -0.29217409,0.0892 C 0.41371223,296.29289 0,295.63313 0,295.56046 c 0,-0.0218 0.09991975,-0.11358 0.22204491,-0.20416 l 0.22204467,-0.16468 v -0.20352 -0.20353 l -0.22204477,-0.1647 C 0.09992014,294.5293 3.4003219e-5,294.43772 7.5824352e-5,294.41636 2.2529618e-4,294.34436 0.41458825,293.6836 0.46418868,293.6763 c 0.0255854,-0.003 0.1569362,0.0364 0.29189085,0.0892 l 0.24537197,0.0961 0.1641124,-0.0952 c 0.090261,-0.0523 0.1715723,-0.0952 0.1806899,-0.0952 0.00911,0 0.031333,-0.11494 0.049367,-0.25544 0.045619,-0.35539 0.026986,-0.34315 0.5226461,-0.34315 0.3531608,0 0.4038024,0.005 0.4442284,0.0439 z m -0.6740404,1.22625 c -0.1308977,0.0349 -0.2920365,0.16039 -0.3783314,0.29454 -0.062069,0.0966 -0.075285,0.14544 -0.084417,0.31262 -0.00879,0.16104 -0.00161,0.21827 0.03832,0.305 0.069477,0.15097 0.1872367,0.27075 0.3363771,0.34218 0.1826231,0.0874 0.4531009,0.0874 0.6357242,0 0.252004,-0.1207 0.3782764,-0.32393 0.3791424,-0.61023 4.447e-4,-0.14688 -0.011473,-0.20405 -0.063408,-0.30423 -0.072442,-0.13972 -0.1967488,-0.25473 -0.3454719,-0.31965 -0.114378,-0.0499 -0.369353,-0.0599 -0.5179352,-0.0203 z"
       id="path5141"
       inkscape:connector-curvature="0" />
  </g>
</svg>
